<?xml version="1.0" encoding="UTF-8"?>
<svg width="32px" height="32px" viewBox="0 0 32 32" version="1.1" xmlns="http://www.w3.org/2000/svg" xmlns:xlink="http://www.w3.org/1999/xlink">
    <!-- Generator: Sketch 3.6.1 (26313) - http://www.bohemiancoding.com/sketch -->
    <title>facebook-round</title>
    <desc>Created with Sketch.</desc>
    <defs></defs>
    <g id="Page-1" stroke="none" stroke-width="1" fill="none" fill-rule="evenodd">
        <g id="facebook-round" fill="#2C3E50">
            <path d="M16,0 C7.2,0 0,7.2 0,16 C0,24.8 7.2,32 16,32 C24.8,32 32,24.8 32,16 C32,7.2 24.8,0 16,0 L16,0 Z M20.2,10.7 L18.7,10.7 C17.5,10.7 17.3,11.3 17.3,12.1 L17.3,13.9 L20.1,13.9 L19.7,16.7 L17.3,16.7 L17.3,24 L14.4,24 L14.4,16.7 L11.9,16.7 L11.9,13.9 L14.4,13.9 L14.4,11.8 C14.3,9.3 15.8,8 18,8 C19,8 19.9,8.1 20.2,8.1 L20.2,10.7 L20.2,10.7 Z" id="Shape"></path>
        </g>
    </g>
</svg>