<?xml version="1.0" encoding="UTF-8"?>
<svg width="32px" height="32px" viewBox="0 0 32 32" version="1.1" xmlns="http://www.w3.org/2000/svg" xmlns:xlink="http://www.w3.org/1999/xlink">
    <!-- Generator: Sketch 3.6.1 (26313) - http://www.bohemiancoding.com/sketch -->
    <title>flickr-round</title>
    <desc>Created with Sketch.</desc>
    <defs></defs>
    <g id="Page-1" stroke="none" stroke-width="1" fill="none" fill-rule="evenodd">
        <g id="flickr-round" fill="#2C3E50">
            <path d="M16,0 C7.2,0 0,7.2 0,16 C0,24.8 7.2,32 16,32 C24.8,32 32,24.8 32,16 C32,7.2 24.8,0 16,0 L16,0 Z M11.6,19.6 C9.6,19.6 8,18 8,16 C8,14 9.6,12.4 11.6,12.4 C13.6,12.4 15.2,14 15.2,16 C15.1,18 13.5,19.6 11.6,19.6 L11.6,19.6 Z M20.4,19.6 C18.4,19.6 16.8,18 16.8,16 C16.8,14 18.4,12.4 20.4,12.4 C22.4,12.4 24,14 24,16 C24,18 22.4,19.6 20.4,19.6 L20.4,19.6 Z" id="Shape"></path>
        </g>
    </g>
</svg>