<?xml version="1.0" encoding="UTF-8"?>
<svg width="32px" height="32px" viewBox="0 0 32 32" version="1.1" xmlns="http://www.w3.org/2000/svg" xmlns:xlink="http://www.w3.org/1999/xlink">
    <!-- Generator: Sketch 3.6.1 (26313) - http://www.bohemiancoding.com/sketch -->
    <title>instagram-round</title>
    <desc>Created with Sketch.</desc>
    <defs></defs>
    <g id="Page-1" stroke="none" stroke-width="1" fill="none" fill-rule="evenodd">
        <g id="instagram-round" fill="#2C3E50">
            <path d="M16,19.1 C17.7120827,19.1 19.1,17.7120827 19.1,16 C19.1,14.2879173 17.7120827,12.9 16,12.9 C14.2879173,12.9 12.9,14.2879173 12.9,16 C12.9,17.7120827 14.2879173,19.1 16,19.1 Z" id="Oval"></path>
            <path d="M21.8,12.9 C22,12.9 22.2,12.7 22.2,12.5 L22.2,10.3 C22.2,10.1 22,9.9 21.8,9.9 L19.6,9.9 C19.4,9.9 19.2,10.1 19.2,10.3 L19.2,12.5 C19.1,12.7 19.3,12.9 19.6,12.9 L21.8,12.9 Z" id="Shape"></path>
            <path d="M16,0 C7.2,0 0,7.2 0,16 C0,24.8 7.2,32 16,32 C24.8,32 32,24.8 32,16 C32,7.2 24.8,0 16,0 L16,0 Z M24,22.1 C24,23.1 23.1,24 22.1,24 L9.9,24 C8.9,24 8,23.2 8,22.1 L8,9.9 C8,8.8 8.9,8 9.9,8 L22.1,8 C23.1,8 24,8.8 24,9.9 L24,22.1 L24,22.1 Z" id="Shape"></path>
            <path d="M20.9,16 C20.9,18.7 18.7,20.9 16,20.9 C13.3,20.9 11.1,18.7 11.1,16 C11.1,15.6 11.2,15.1 11.3,14.7 L9.8,14.7 L9.8,21.7 C9.8,21.9 10,22.1 10.2,22.1 L21.7,22.1 C21.9,22.1 22.1,21.9 22.1,21.7 L22.1,14.7 L20.6,14.7 C20.8,15.1 20.9,15.6 20.9,16 L20.9,16 Z" id="Shape"></path>
        </g>
    </g>
</svg>