<?xml version="1.0" encoding="UTF-8"?>
<svg width="32px" height="32px" viewBox="0 0 32 32" version="1.1" xmlns="http://www.w3.org/2000/svg" xmlns:xlink="http://www.w3.org/1999/xlink">
    <!-- Generator: Sketch 3.6.1 (26313) - http://www.bohemiancoding.com/sketch -->
    <title>linkedin-round</title>
    <desc>Created with Sketch.</desc>
    <defs></defs>
    <g id="Page-1" stroke="none" stroke-width="1" fill="none" fill-rule="evenodd">
        <g id="linkedin-round" fill="#2C3E50">
            <path d="M16,0 C7.2,0 0,7.2 0,16 C0,24.8 7.2,32 16,32 C24.8,32 32,24.8 32,16 C32,7.2 24.8,0 16,0 L16,0 Z M11.6,24 L8.3,24 L8.3,13.3 L11.6,13.3 L11.6,24 L11.6,24 Z M9.9,11.9 C8.9,11.9 8,11 8,9.9 C8,8.9 8.9,8 9.9,8 C11,8 11.8,8.9 11.8,9.9 C11.8,11 11,11.9 9.9,11.9 L9.9,11.9 Z M24,24 L20.7,24 L20.7,18.8 C20.7,17.6 20.7,16 19,16 C17.3,16 17,17.3 17,18.7 L17,24 L13.7,24 L13.7,13.3 L16.9,13.3 L16.9,14.8 L16.9,14.8 C17.3,14 18.4,13.1 20,13.1 C23.4,13.1 24,15.3 24,18.2 L24,24 L24,24 Z" id="Shape"></path>
        </g>
    </g>
</svg>