<svg width="28" height="29" viewBox="0 0 28 29" fill="none" xmlns="http://www.w3.org/2000/svg">
<path d="M14 21.0625C17.6244 21.0625 20.5625 18.1244 20.5625 14.5C20.5625 10.8756 17.6244 7.9375 14 7.9375C10.3756 7.9375 7.4375 10.8756 7.4375 14.5C7.4375 18.1244 10.3756 21.0625 14 21.0625Z" fill="#F6C344"/>
<path fill-rule="evenodd" clip-rule="evenodd" d="M14 8.8125C10.8589 8.8125 8.3125 11.3589 8.3125 14.5C8.3125 17.6411 10.8589 20.1875 14 20.1875C17.1411 20.1875 19.6875 17.6411 19.6875 14.5C19.6875 11.3589 17.1411 8.8125 14 8.8125ZM6.5625 14.5C6.5625 10.3924 9.89238 7.0625 14 7.0625C18.1076 7.0625 21.4375 10.3924 21.4375 14.5C21.4375 18.6076 18.1076 21.9375 14 21.9375C9.89238 21.9375 6.5625 18.6076 6.5625 14.5Z" fill="#F6C344"/>
<path fill-rule="evenodd" clip-rule="evenodd" d="M14 1.375C14.4832 1.375 14.875 1.76675 14.875 2.25V4.4375C14.875 4.92075 14.4832 5.3125 14 5.3125C13.5168 5.3125 13.125 4.92075 13.125 4.4375V2.25C13.125 1.76675 13.5168 1.375 14 1.375Z" fill="#F6C344"/>
<path fill-rule="evenodd" clip-rule="evenodd" d="M4.71917 5.21923C5.06088 4.87752 5.6149 4.87752 5.95661 5.21923L7.5034 6.76603C7.84511 7.10774 7.84511 7.66176 7.5034 8.00347C7.1617 8.34517 6.60768 8.34517 6.26597 8.00347L4.71917 6.45667C4.37746 6.11496 4.37746 5.56094 4.71917 5.21923Z" fill="#F6C344"/>
<path fill-rule="evenodd" clip-rule="evenodd" d="M0.875 14.5C0.875 14.0168 1.26675 13.625 1.75 13.625H3.9375C4.42075 13.625 4.8125 14.0168 4.8125 14.5C4.8125 14.9832 4.42075 15.375 3.9375 15.375H1.75C1.26675 15.375 0.875 14.9832 0.875 14.5Z" fill="#F6C344"/>
<path fill-rule="evenodd" clip-rule="evenodd" d="M7.5034 20.9965C7.84511 21.3383 7.84511 21.8923 7.5034 22.234L5.95661 23.7808C5.6149 24.1225 5.06088 24.1225 4.71917 23.7808C4.37746 23.4391 4.37746 22.885 4.71917 22.5433L6.26597 20.9965C6.60768 20.6548 7.1617 20.6548 7.5034 20.9965Z" fill="#F6C344"/>
<path fill-rule="evenodd" clip-rule="evenodd" d="M14 23.6875C14.4832 23.6875 14.875 24.0793 14.875 24.5625V26.75C14.875 27.2332 14.4832 27.625 14 27.625C13.5168 27.625 13.125 27.2332 13.125 26.75V24.5625C13.125 24.0793 13.5168 23.6875 14 23.6875Z" fill="#F6C344"/>
<path fill-rule="evenodd" clip-rule="evenodd" d="M20.4965 20.9965C20.8382 20.6548 21.3922 20.6548 21.734 20.9965L23.2808 22.5433C23.6225 22.885 23.6225 23.4391 23.2808 23.7808C22.939 24.1225 22.385 24.1225 22.0433 23.7808L20.4965 22.234C20.1548 21.8923 20.1548 21.3383 20.4965 20.9965Z" fill="#F6C344"/>
<path fill-rule="evenodd" clip-rule="evenodd" d="M23.1875 14.5C23.1875 14.0168 23.5793 13.625 24.0625 13.625H26.25C26.7332 13.625 27.125 14.0168 27.125 14.5C27.125 14.9832 26.7332 15.375 26.25 15.375H24.0625C23.5793 15.375 23.1875 14.9832 23.1875 14.5Z" fill="#F6C344"/>
<path fill-rule="evenodd" clip-rule="evenodd" d="M23.2808 5.21923C23.6225 5.56094 23.6225 6.11496 23.2808 6.45667L21.734 8.00347C21.3922 8.34517 20.8382 8.34517 20.4965 8.00347C20.1548 7.66176 20.1548 7.10774 20.4965 6.76603L22.0433 5.21923C22.385 4.87752 22.939 4.87752 23.2808 5.21923Z" fill="#F6C344"/>
</svg>
