<svg width="730" height="275" viewBox="0 0 730 275" fill="none" xmlns="http://www.w3.org/2000/svg">
<path d="M151.25 150.358C157.067 150.358 160.634 147.021 160.71 141.818H154.165C154.011 143.876 152.899 144.989 151.352 144.989C149.499 144.989 148.284 143.403 148.284 140.182C148.284 136.96 149.499 135.375 151.352 135.375C152.912 135.375 153.973 136.487 154.165 138.545H160.71C160.672 133.432 157.028 130.108 151.25 130.108C144.858 130.108 141.074 134.199 141.074 140.233C141.074 146.267 144.858 150.358 151.25 150.358ZM169.093 150.307C171.65 150.307 173.581 149.438 174.77 147.239H174.923V150H181.52V136.551C181.52 132.92 178.081 130.108 172.468 130.108C166.6 130.108 163.711 133.176 163.468 136.756H169.963C170.129 135.541 171.024 134.966 172.366 134.966C173.593 134.966 174.463 135.528 174.463 136.551V136.602C174.463 137.74 173.21 138.098 169.912 138.341C165.859 138.635 162.701 140.271 162.701 144.58C162.701 148.491 165.335 150.307 169.093 150.307ZM171.395 145.858C170.193 145.858 169.349 145.27 169.349 144.17C169.349 143.161 170.065 142.381 171.701 142.125C172.826 141.946 173.772 141.716 174.514 141.409V143.045C174.514 144.835 172.993 145.858 171.395 145.858ZM202.84 136.756C202.661 132.601 199.21 130.108 193.533 130.108C187.921 130.108 184.457 132.409 184.482 136.5C184.457 139.594 186.464 141.575 190.465 142.278L193.942 142.892C195.477 143.173 196.167 143.582 196.192 144.324C196.167 145.142 195.234 145.602 193.942 145.602C192.344 145.602 191.219 144.912 191.028 143.659H184.022C184.406 147.686 187.883 150.358 193.891 150.358C199.325 150.358 203.326 147.712 203.352 143.506C203.326 140.604 201.383 138.916 197.369 138.188L193.38 137.472C191.884 137.203 191.462 136.666 191.488 136.091C191.462 135.273 192.472 134.812 193.687 134.812C195.08 134.812 196.244 135.554 196.346 136.756H202.84ZM215.464 150.358C220.911 150.358 224.413 147.75 225.078 143.659H218.635C218.226 144.771 217.062 145.398 215.618 145.398C213.521 145.398 212.294 144.017 212.294 142.125V141.818H225.078V140.182C225.078 133.93 221.243 130.108 215.311 130.108C209.226 130.108 205.339 134.148 205.339 140.233C205.339 146.587 209.175 150.358 215.464 150.358ZM212.294 137.932C212.332 136.232 213.739 135.068 215.464 135.068C217.216 135.068 218.545 136.244 218.584 137.932H212.294ZM253.078 136.756C252.9 132.601 249.448 130.108 243.772 130.108C238.159 130.108 234.695 132.409 234.721 136.5C234.695 139.594 236.702 141.575 240.703 142.278L244.181 142.892C245.715 143.173 246.405 143.582 246.431 144.324C246.405 145.142 245.472 145.602 244.181 145.602C242.583 145.602 241.458 144.912 241.266 143.659H234.26C234.644 147.686 238.121 150.358 244.13 150.358C249.563 150.358 253.564 147.712 253.59 143.506C253.564 140.604 251.621 138.916 247.607 138.188L243.618 137.472C242.123 137.203 241.701 136.666 241.726 136.091C241.701 135.273 242.711 134.812 243.925 134.812C245.319 134.812 246.482 135.554 246.584 136.756H253.078ZM268.004 130.364H264.629V125.659H257.572V130.364H255.066V135.477H257.572V144.349C257.521 148.466 260.065 150.55 264.936 150.281C266.534 150.192 267.723 149.859 268.362 149.668L267.339 144.707C267.071 144.771 266.38 144.912 265.958 144.912C265.038 144.912 264.629 144.503 264.629 143.685V135.477H268.004V130.364ZM283.616 141.409C283.629 143.352 282.504 144.528 280.753 144.528C278.976 144.528 277.953 143.352 277.94 141.409V130.364H270.884V142.892C270.896 147.188 273.607 150.256 277.736 150.256C280.663 150.256 282.913 148.773 283.77 146.267H283.974V150H290.673V130.364H283.616V141.409ZM301.37 150.256C304.132 150.256 306.024 148.773 306.842 146.778H306.995V150H314.001V123.818H306.944V133.79H306.842C306.075 131.795 304.234 130.108 301.319 130.108C297.433 130.108 293.649 133.074 293.649 140.182C293.649 146.983 297.177 150.256 301.37 150.256ZM303.978 144.835C302.035 144.835 300.91 143.097 300.91 140.182C300.91 137.267 302.035 135.528 303.978 135.528C305.922 135.528 307.098 137.267 307.098 140.182C307.098 143.045 305.922 144.835 303.978 144.835ZM321.761 157.364C326.696 157.364 329.01 154.884 330.096 151.636L337.255 130.364H329.841L326.619 143.966H326.414L323.244 130.364H315.88L322.784 150.869L322.63 151.227C322.157 152.314 320.789 152.276 319.051 151.662L317.517 156.673C318.616 157.108 320.137 157.364 321.761 157.364ZM355.895 150.358C361.711 150.358 365.278 147.021 365.355 141.818H358.809C358.656 143.876 357.544 144.989 355.997 144.989C354.143 144.989 352.929 143.403 352.929 140.182C352.929 136.96 354.143 135.375 355.997 135.375C357.556 135.375 358.618 136.487 358.809 138.545H365.355C365.316 133.432 361.673 130.108 355.895 130.108C349.502 130.108 345.718 134.199 345.718 140.233C345.718 146.267 349.502 150.358 355.895 150.358ZM377.727 150.358C384.119 150.358 387.903 146.267 387.903 140.233C387.903 134.199 384.119 130.108 377.727 130.108C371.335 130.108 367.55 134.199 367.55 140.233C367.55 146.267 371.335 150.358 377.727 150.358ZM377.778 145.142C375.886 145.142 374.761 143.263 374.761 140.182C374.761 137.101 375.886 135.222 377.778 135.222C379.567 135.222 380.692 137.101 380.692 140.182C380.692 143.263 379.567 145.142 377.778 145.142ZM390.766 150H397.823V138.545C397.823 136.832 398.718 135.784 400.175 135.784C401.633 135.784 402.579 136.832 402.579 138.545V150H409.329V138.545C409.329 136.832 410.224 135.784 411.681 135.784C413.138 135.784 414.085 136.832 414.085 138.545V150H421.141V136.756C421.141 132.729 418.559 130.108 414.8 130.108C411.886 130.108 409.533 131.693 408.869 134.097H408.664C408.255 131.693 406.056 130.108 403.295 130.108C400.572 130.108 398.488 131.642 397.67 134.097H397.465V130.364H390.766V150ZM424.622 150H431.679V130.364H424.622V150ZM428.15 128.318C430.068 128.318 431.627 126.874 431.627 125.097C431.627 123.32 430.068 121.875 428.15 121.875C426.233 121.875 424.673 123.32 424.673 125.097C424.673 126.874 426.233 128.318 428.15 128.318ZM442.331 138.955C442.344 137.011 443.443 135.835 445.195 135.835C446.972 135.835 448.02 137.011 448.007 138.955V150H455.064V137.472C455.077 133.202 452.379 130.108 448.212 130.108C445.322 130.108 443.034 131.616 442.178 134.097H441.973V130.364H435.274V150H442.331V138.955ZM468.008 157.773C474.221 157.773 478.337 154.935 478.337 149.949V130.364H471.281V133.79H471.127C470.36 131.795 468.519 130.108 465.604 130.108C461.718 130.108 457.934 133.074 457.934 140.182C457.934 146.983 461.462 149.744 465.656 149.744C468.315 149.744 470.411 148.619 471.178 146.625H471.383V149.949C471.383 152.263 470.04 153.017 468.212 153.017C466.589 153.017 465.4 152.531 465.195 151.278H458.394C458.663 155.062 462.102 157.773 468.008 157.773ZM468.263 144.733C466.32 144.733 465.195 143.097 465.195 140.182C465.195 137.267 466.32 135.528 468.263 135.528C470.207 135.528 471.383 137.267 471.383 140.182C471.383 143.045 470.207 144.733 468.263 144.733ZM507.047 136.756C506.868 132.601 503.417 130.108 497.74 130.108C492.128 130.108 488.664 132.409 488.689 136.5C488.664 139.594 490.671 141.575 494.672 142.278L498.15 142.892C499.684 143.173 500.374 143.582 500.4 144.324C500.374 145.142 499.441 145.602 498.15 145.602C496.551 145.602 495.426 144.912 495.235 143.659H488.229C488.613 147.686 492.09 150.358 498.098 150.358C503.532 150.358 507.533 147.712 507.559 143.506C507.533 140.604 505.59 138.916 501.576 138.188L497.587 137.472C496.091 137.203 495.669 136.666 495.695 136.091C495.669 135.273 496.679 134.812 497.894 134.812C499.287 134.812 500.451 135.554 500.553 136.756H507.047ZM519.723 150.358C526.115 150.358 529.899 146.267 529.899 140.233C529.899 134.199 526.115 130.108 519.723 130.108C513.331 130.108 509.547 134.199 509.547 140.233C509.547 146.267 513.331 150.358 519.723 150.358ZM519.774 145.142C517.882 145.142 516.757 143.263 516.757 140.182C516.757 137.101 517.882 135.222 519.774 135.222C521.564 135.222 522.689 137.101 522.689 140.182C522.689 143.263 521.564 145.142 519.774 145.142ZM542.223 150.358C548.615 150.358 552.399 146.267 552.399 140.233C552.399 134.199 548.615 130.108 542.223 130.108C535.831 130.108 532.047 134.199 532.047 140.233C532.047 146.267 535.831 150.358 542.223 150.358ZM542.274 145.142C540.382 145.142 539.257 143.263 539.257 140.182C539.257 137.101 540.382 135.222 542.274 135.222C544.064 135.222 545.189 137.101 545.189 140.182C545.189 143.263 544.064 145.142 542.274 145.142ZM562.319 138.955C562.332 137.011 563.431 135.835 565.183 135.835C566.96 135.835 568.008 137.011 567.995 138.955V150H575.052V137.472C575.065 133.202 572.368 130.108 568.2 130.108C565.311 130.108 563.022 131.616 562.166 134.097H561.961V130.364H555.262V150H562.319V138.955ZM586.718 123.818H579.559L580.223 141.818H586.053L586.718 123.818ZM583.138 150.409C585.017 150.409 586.692 148.824 586.718 146.83C586.692 144.886 585.017 143.301 583.138 143.301C581.157 143.301 579.533 144.886 579.559 146.83C579.533 148.824 581.157 150.409 583.138 150.409Z" fill="#0E1012"/>
<path d="M16.8675 0H12.0482V12.049H0V16.8686H12.0482V28.9175H16.8675V16.8686H28.9157V12.049H16.8675V0Z" fill="#E9E9E9"/>
<path d="M16.8675 86.7525H12.0482V98.8015H0V103.621H12.0482V115.67H16.8675V103.621H28.9157V98.8015H16.8675V86.7525Z" fill="#E9E9E9"/>
<path d="M53.8557 43.3763H49.0365V55.4252H36.9883V60.2448H49.0365V72.2938H53.8557V60.2448H65.9039V55.4252H53.8557V43.3763Z" fill="#E9E9E9"/>
<path d="M90.844 0H86.0248V12.049H73.9766V16.8686H86.0248V28.9175H90.844V16.8686H102.892V12.049H90.844V0Z" fill="#E9E9E9"/>
<path d="M16.8675 43.3763H12.0482V55.4252H0V60.2448H12.0482V72.2938H16.8675V60.2448H28.9157V55.4252H16.8675V43.3763Z" fill="#00EDFF"/>
<path d="M16.8675 130.129H12.0482V142.178H0V146.997H12.0482V159.046H16.8675V146.997H28.9157V142.178H16.8675V130.129Z" fill="#00EDFF"/>
<path d="M53.8557 0H49.0365V12.049H36.9883V16.8686H49.0365V28.9175H53.8557V16.8686H65.9039V12.049H53.8557V0Z" fill="#00EDFF"/>
<path d="M53.8557 86.7525H49.0365V98.8015H36.9883V103.621H49.0365V115.67H53.8557V103.621H65.9039V98.8015H53.8557V86.7525Z" fill="#00EDFF"/>
<path d="M90.844 43.3763H86.0248V55.4252H73.9766V60.2448H86.0248V72.2938H90.844V60.2448H102.892V55.4252H90.844V43.3763Z" fill="#00EDFF"/>
<path d="M127.953 0H123.134V12.049H111.086V16.8686H123.134V28.9175H127.953V16.8686H140.002V12.049H127.953V0Z" fill="#00EDFF"/>
<path d="M606.867 245.129H602.048V257.178H590V261.998H602.048V274.047H606.867V261.998H618.916V257.178H606.867V245.129Z" fill="#E9E9E9"/>
<path d="M643.856 201.753H639.036V213.802H626.988V218.621H639.036V230.67H643.856V218.621H655.904V213.802H643.856V201.753Z" fill="#E9E9E9"/>
<path d="M680.965 158.376H676.146V170.425H664.098V175.245H676.146V187.294H680.965V175.245H693.013V170.425H680.965V158.376Z" fill="#E9E9E9"/>
<path d="M680.965 245.129H676.146V257.178H664.098V261.998H676.146V274.047H680.965V261.998H693.013V257.178H680.965V245.129Z" fill="#E9E9E9"/>
<path d="M717.953 115H713.134V127.049H701.086V131.869H713.134V143.918H717.953V131.869H730.002V127.049H717.953V115Z" fill="#E9E9E9"/>
<path d="M717.953 201.753H713.134V213.802H701.086V218.621H713.134V230.67H717.953V218.621H730.002V213.802H717.953V201.753Z" fill="#E9E9E9"/>
<path d="M643.856 245.129H639.036V257.178H626.988V261.998H639.036V274.047H643.856V261.998H655.904V257.178H643.856V245.129Z" fill="#00EDFF"/>
<path d="M680.965 201.753H676.146V213.802H664.098V218.621H676.146V230.67H680.965V218.621H693.013V213.802H680.965V201.753Z" fill="#00EDFF"/>
<path d="M717.953 158.376H713.134V170.425H701.086V175.245H713.134V187.294H717.953V175.245H730.002V170.425H717.953V158.376Z" fill="#00EDFF"/>
<path d="M717.953 245.129H713.134V257.178H701.086V261.998H713.134V274.047H717.953V261.998H730.002V257.178H717.953V245.129Z" fill="#00EDFF"/>
</svg>
