<?xml version="1.0" encoding="UTF-8"?>
<svg width="35px" height="50px" viewBox="0 0 35 50" version="1.1" xmlns="http://www.w3.org/2000/svg" xmlns:xlink="http://www.w3.org/1999/xlink">
    <!-- Generator: Sketch 48.2 (47327) - http://www.bohemiancoding.com/sketch -->
    <title>arrow-left</title>
    <desc>Created with Sketch.</desc>
    <defs></defs>
    <g id="Artboard" stroke="none" stroke-width="1" fill="none" fill-rule="evenodd" transform="translate(-208.000000, -291.000000)">
        <g id="arrow-left" transform="translate(225.500000, 316.000000) scale(1, -1) rotate(-90.000000) translate(-225.500000, -316.000000) translate(200.500000, 298.500000)" fill="#FCFDFD" fill-rule="nonzero">
            <path d="M23.315,2.27653358 C23.315,2.08353358 23.287,1.89653358 23.24,1.71553358 C23.229,1.66453358 23.211,1.61653358 23.196,1.56953358 C23.148,1.43053358 23.089,1.29453358 23.019,1.16853358 C22.997,1.13153358 22.98,1.09253358 22.957,1.05653358 C22.868,0.917533584 22.767,0.783533584 22.651,0.666533584 C22.643,0.655533584 22.632,0.652533584 22.62,0.642533584 C22.46,0.490533584 22.278,0.354533584 22.074,0.249533584 C21.314,-0.140466416 20.397,-0.069466416 19.707,0.435533584 L0.938,15.6385336 C0.347,16.0695336 0,16.7545336 0,17.4805336 C0,18.2125336 0.348,18.8955336 0.938,19.3215336 L19.706,34.5305336 C20.131,34.8395336 20.634,34.9645336 21.14,34.9415336 L21.141,34.9415336 C21.293,34.9345336 21.443,34.9205336 21.59,34.8815336 C21.759,34.8485336 21.92,34.7945336 22.075,34.7135336 C22.837,34.3315336 23.318,33.5425336 23.318,32.6885336 L23.314,24.9575336 L43.856,22.7935336 C46.789,22.7935336 49.164,20.4165336 49.164,17.4805336 C49.164,14.5475336 46.789,12.1725336 43.856,12.1725336 L23.318,10.0075336 L23.315,2.27653358 Z" id="Shape"></path>
        </g>
    </g>
</svg>