<?xml version="1.0" encoding="UTF-8"?>
<svg width="88px" height="46px" viewBox="0 0 88 46" version="1.1" xmlns="http://www.w3.org/2000/svg" xmlns:xlink="http://www.w3.org/1999/xlink">
    <!-- Generator: Sketch 53.2 (72643) - https://sketchapp.com -->
    <title>Path</title>
    <desc>Created with Sketch.</desc>
    <g id="Page-1" stroke="none" stroke-width="1" fill="none" fill-rule="evenodd">
        <g id="noun_up_1543503" transform="translate(0.000000, -1.000000)" fill="#2E2E2E">
            <g id="Group" transform="translate(0.000000, 0.637820)">
                <path d="M87.99871,43.9697 C87.9807095,43.3693204 87.7280461,42.7994972 87.29427,42.381 L45.67173,1.03889 C44.7633358,0.137069955 43.2910242,0.137069955 42.38263,1.03889 L0.7189296,42.381 C0.109374373,42.9598764 -0.137033631,43.8210894 0.0749200179,44.631858 C0.286873667,45.4426266 0.923992324,46.0759664 1.74008719,46.2871489 C2.55618206,46.4983313 3.42343458,46.2542805 4.00673,45.6493 L44.02593,5.93929 L84.00516,45.6493 C84.6739968,46.3328593 85.6967881,46.5383284 86.5804949,46.1666606 C87.4642018,45.7949927 88.0274443,44.9224724 87.99871,43.9697 L87.99871,43.9697 Z" id="Path"></path>
            </g>
        </g>
    </g>
</svg>