<svg width="15" height="15" viewBox="0 0 15 15" fill="none" xmlns="http://www.w3.org/2000/svg">
<path fill-rule="evenodd" clip-rule="evenodd" d="M7.499 0.849609C3.8273 0.849609 0.849609 3.82691 0.849609 7.49983C0.849609 10.4375 2.75486 12.9302 5.39739 13.81C5.7301 13.8708 5.85135 13.6655 5.85135 13.4891C5.85135 13.3311 5.84563 12.9131 5.84237 12.3583C3.99264 12.76 3.60236 11.4667 3.60236 11.4667C3.29986 10.6984 2.86386 10.4938 2.86386 10.4938C2.26008 10.0815 2.90958 10.0897 2.90958 10.0897C3.57705 10.1366 3.92814 10.7751 3.92814 10.7751C4.52131 11.7912 5.48475 11.4977 5.8636 11.3275C5.92402 10.898 6.09588 10.6049 6.28571 10.4387C4.80912 10.2705 3.25659 9.70023 3.25659 7.15201C3.25659 6.42575 3.51582 5.83258 3.9412 5.3676C3.87262 5.19941 3.64441 4.52335 4.00652 3.60767C4.00652 3.60767 4.56458 3.42886 5.83502 4.28902C6.36532 4.14164 6.9344 4.06816 7.49981 4.0653C8.06482 4.06816 8.63349 4.14164 9.16461 4.28902C10.4342 3.42886 10.9915 3.60767 10.9915 3.60767C11.3544 4.52335 11.1262 5.19941 11.058 5.3676C11.4842 5.83258 11.7414 6.42575 11.7414 7.15201C11.7414 9.70677 10.1864 10.2689 8.70534 10.4334C8.94375 10.6388 9.15645 11.0446 9.15645 11.6651C9.15645 12.5538 9.14828 13.2711 9.14828 13.4891C9.14828 13.6671 9.26831 13.8741 9.60551 13.8091C12.246 12.9278 14.1496 10.4371 14.1496 7.49983C14.1496 3.82691 11.1719 0.849609 7.499 0.849609" fill="#69AAF3"/>
</svg>
