<svg width="28" height="29" viewBox="0 0 28 29" fill="none" xmlns="http://www.w3.org/2000/svg">
<path d="M4.30255 17.196C6.02018 17.6733 7.83376 17.6859 9.55785 17.2325C11.2819 16.779 12.8547 15.8758 14.1152 14.6153C15.3758 13.3547 16.279 11.782 16.7324 10.0579C17.1859 8.3338 17.1733 6.52022 16.696 4.80258L16.6958 4.80267C18.3899 5.27396 19.931 6.18093 21.1655 7.43321C22.4 8.6855 23.2849 10.2394 23.7319 11.9401C24.1789 13.6408 24.1725 15.429 23.7133 17.1264C23.2542 18.8239 22.3582 20.3714 21.1148 21.6148C19.8714 22.8583 18.3238 23.7542 16.6263 24.2134C14.9289 24.6725 13.1407 24.6789 11.44 24.2319C9.73931 23.7848 8.18543 22.9 6.93315 21.6654C5.68088 20.4309 4.77393 18.8898 4.30265 17.1957L4.30255 17.196Z" fill="#F6C344"/>
</svg>
