<?xml version="1.0" encoding="UTF-8"?>
<svg width="24px" height="20px" viewBox="0 0 24 20" version="1.1" xmlns="http://www.w3.org/2000/svg" xmlns:xlink="http://www.w3.org/1999/xlink">
    <!-- Generator: Sketch 48.2 (47327) - http://www.bohemiancoding.com/sketch -->
    <title>minutemailer</title>
    <desc>Created with Sketch.</desc>
    <defs></defs>
    <g id="Artboard" stroke="none" stroke-width="1" fill="none" fill-rule="evenodd" transform="translate(-153.000000, -187.000000)">
        <g id="minutemailer" transform="translate(153.000000, 187.000000)" fill="#FCFDFD" fill-rule="nonzero">
            <path d="M5.564,0.703 L9.014,4.437 L6.58,9.235 L11.72,8.314 L14.06,13.96 L24,0.926 L5.564,0.703 Z M4.928,8.791 L5.885,8.004 L4.651,8.394 L4.525,8.214 L5.035,7.719 L4.366,7.989 C1.813,8.979 0,11.455 0,14.35 C0,16.301 0.822,18.055 2.133,19.297 C1.57,18.307 1.248,17.163 1.248,15.942 C1.248,13.077 3.057,10.527 5.563,9.522 L5.878,8.756 L5.128,9.087 L4.917,8.802 L4.928,8.791 Z M9.292,6.821 L10.89,4 L20.288,1.799 L9.292,6.821 Z" id="Shape"></path>
        </g>
    </g>
</svg>