<?xml version="1.0" encoding="UTF-8"?>
<svg width="12px" height="7px" viewBox="0 0 12 7" version="1.1" xmlns="http://www.w3.org/2000/svg" xmlns:xlink="http://www.w3.org/1999/xlink">
    <!-- Generator: Sketch 48.2 (47327) - http://www.bohemiancoding.com/sketch -->
    <title>Shape</title>
    <desc>Created with Sketch.</desc>
    <defs></defs>
    <g id="Artboard" stroke="none" stroke-width="1" fill="none" fill-rule="evenodd" transform="translate(-169.000000, -232.000000)">
        <g id="chevron-up" transform="translate(169.000000, 232.000000)" fill="#FCFDFD" fill-rule="nonzero">
            <path d="M11.6721017,6.64201007 C11.2210495,7.10114468 10.5930937,7.13717542 10.0416927,6.64201007 L5.99877471,2.78466169 L1.95585677,6.64201007 C1.40445573,7.13717542 0.775465425,7.10114468 0.327516738,6.64201007 C-0.123535519,6.18390491 -0.0945688604,5.40975867 0.327516738,4.97944865 C0.74753329,4.54913864 5.18460469,0.344865681 5.18460469,0.344865681 C5.4090963,0.115298377 5.7039355,0 5.99877471,0 C6.29361391,0 6.58845312,0.115298377 6.81501377,0.344865681 C6.81501377,0.344865681 11.2500161,4.54913864 11.6721017,4.97944865 C12.0952219,5.40975867 12.123154,6.18390491 11.6721017,6.64201007 Z" id="Shape"></path>
        </g>
    </g>
</svg>